<svg width="500" height="500" viewBox="0 0 500 500" fill="none" xmlns="http://www.w3.org/2000/svg">
<path d="M454.375 213.542C453.125 212.708 442.708 204.583 420.208 204.583C414.375 204.583 408.542 205.208 402.708 206.25C398.333 177.083 373.958 162.292 372.917 161.667L366.875 158.125L363.125 163.75C358.125 171.25 354.167 179.792 352.5 188.542C348.333 205.208 350.833 221.042 359.375 234.583C349.167 240.417 332.5 241.875 328.958 241.875H54.5833C47.5 241.875 41.6666 247.708 41.6666 255C41.6666 278.958 45.4166 302.917 53.75 325.417C63.125 350.208 77.2916 368.542 95.4166 379.792C115.833 392.292 149.375 399.375 187.5 399.375C203.958 399.375 221.042 397.917 237.917 394.792C261.25 390.625 283.75 382.5 304.375 370.625C321.456 360.857 336.745 348.246 349.583 333.333C371.458 308.958 384.375 281.25 393.75 257.292H397.708C421.458 257.292 436.25 247.708 444.375 239.583C449.792 234.583 453.75 228.542 456.667 221.458L458.333 216.458L454.375 213.542ZM80.2083 234.167H116.875C118.542 234.167 120.208 232.708 120.208 230.833V197.917C120.208 196.25 118.75 194.583 116.875 194.583H80.2083C78.3333 194.583 76.875 196.042 76.875 197.917V230.833C77.0833 232.708 78.3333 234.167 80.2083 234.167ZM130.833 234.167H167.5C169.167 234.167 170.833 232.708 170.833 230.833V197.917C170.833 196.25 169.375 194.583 167.5 194.583H130.833C128.958 194.583 127.5 196.042 127.5 197.917V230.833C127.708 232.708 128.958 234.167 130.833 234.167ZM182.292 234.167H218.75C220.833 234.167 222.292 232.708 222.292 230.833V197.917C222.292 196.25 221.042 194.583 218.75 194.583H182.292C180.625 194.583 179.167 196.042 179.167 197.917V230.833C179.167 232.708 180.417 234.167 182.292 234.167ZM233.125 234.167H270C271.667 234.167 273.125 232.708 273.125 230.833V197.917C273.125 196.25 271.875 194.583 270 194.583H233.125C231.458 194.583 230 196.042 230 197.917V230.833C230 232.708 231.458 234.167 233.125 234.167ZM130.833 187.5H167.5C169.167 187.5 170.833 185.625 170.833 183.75V151.042C170.833 149.167 169.375 147.708 167.5 147.708H130.833C128.958 147.708 127.5 148.958 127.5 151.042V183.75C127.708 185.625 128.958 187.5 130.833 187.5ZM182.292 187.5H218.75C220.833 187.5 222.292 185.625 222.292 183.75V151.042C222.292 149.167 221.042 147.708 218.75 147.708H182.292C180.625 147.708 179.167 148.958 179.167 151.042V183.75C179.167 185.625 180.417 187.5 182.292 187.5ZM233.125 187.5H270C271.667 187.5 273.125 185.625 273.125 183.75V151.042C273.125 149.167 271.667 147.708 270 147.708H233.125C231.458 147.708 230 148.958 230 151.042V183.75C230 185.625 231.458 187.5 233.125 187.5ZM233.125 140H270C271.667 140 273.125 138.542 273.125 136.667V104.167C273.125 102.083 271.667 100.625 270 100.625H233.125C231.458 100.625 230 101.875 230 104.167V136.667C230 138.333 231.458 140 233.125 140ZM284.375 234.167H321.042C322.917 234.167 324.375 232.708 324.375 230.833V197.917C324.375 196.25 322.917 194.583 321.042 194.583H284.375C282.708 194.583 281.25 196.042 281.25 197.917V230.833C281.25 232.708 282.708 234.167 284.375 234.167Z" fill="#0288D1"/>
</svg>
