<svg width="500" height="500" viewBox="0 0 500 500" fill="none" xmlns="http://www.w3.org/2000/svg">
<path d="M494.805 384.531C476.992 389.063 465.977 384.727 456.094 369.883C433.906 336.641 409.414 304.922 385.781 272.617C382.734 268.438 379.57 264.336 375.625 259.141C347.656 296.875 319.727 332.813 293.516 370.195C284.141 383.555 274.297 389.375 256.797 384.649L361.953 243.516L264.062 116.055C280.898 112.774 292.539 114.453 302.852 129.531C325.625 162.813 350.742 194.492 375.781 228.008C400.977 194.609 425.781 162.891 449.219 129.922C458.633 116.563 468.75 111.484 485.664 116.406C472.852 133.399 460.312 150.117 447.695 166.719C430.664 189.102 413.945 211.758 396.289 233.672C390 241.484 391.016 246.563 396.641 253.945C429.297 296.875 461.562 340.234 494.805 384.531ZM5.19531 241.172C8.00781 227.07 9.88281 212.695 13.7891 198.867C37.2266 115.156 133.32 80.3516 199.336 132.227C238.008 162.656 247.617 205.547 245.703 253.906H27.7344C24.4531 340.664 86.9141 393.047 166.523 366.328C194.453 356.953 210.898 335.078 219.141 307.734C223.32 294.024 230.234 291.875 243.125 295.781C236.523 330 221.563 358.594 190.313 376.484C143.438 403.281 76.5234 394.609 41.3281 357.383C20.5469 335.508 11.7188 308.281 7.8125 278.867C7.22656 274.18 6.01562 269.57 5.07812 264.922C5.15625 257.005 5.19531 249.089 5.19531 241.172ZM28.125 235.352H225.117C223.828 172.617 184.766 128.047 131.367 127.656C72.7734 127.188 30.6641 170.703 28.125 235.352Z" fill="currentColor"/>
</svg>
