<svg width="500" height="500" viewBox="0 0 500 500" fill="none" xmlns="http://www.w3.org/2000/svg">
<g clip-path="url(#clip0_267_4)">
<path d="M294.23 1.5625C290.723 1.5625 287.215 2.33984 284.098 3.50781C290.723 7.79688 294.23 13.6406 296.18 20.2656C296.18 21.0469 296.57 21.8281 296.57 22.6055C296.57 23.3867 296.961 24.1641 296.961 24.9414C297.352 36.2461 293.84 37.8047 291.504 44.4297C287.605 53 288.777 62.3555 293.453 69.7578C293.844 70.5391 294.234 71.7109 295.012 72.4883C289.945 39.7539 317.223 35.0742 322.289 24.9414C322.68 15.9805 315.277 10.1367 309.43 5.84766C303.586 2.33984 298.906 1.55859 294.234 1.55859L294.23 1.5625ZM335.156 8.57031C334.766 11.6875 335.156 10.9102 334.766 12.4687C334.766 13.6367 334.766 14.8047 334.375 15.9766C333.984 17.1445 333.984 17.9258 333.594 19.0937C333.203 20.2617 332.816 21.043 332.426 22.2109C332.035 22.9922 331.645 23.7695 331.254 24.9375C330.867 25.3281 330.477 26.1094 330.09 26.5C329.699 26.8906 329.699 27.2773 329.309 27.668C328.527 28.4492 328.137 29.6133 327.359 30.3945L325.023 32.7344C324.242 33.5156 323.461 34.293 322.684 34.6797C319.957 36.6328 316.84 38.1875 314.109 40.1367C313.328 40.918 312.16 41.3086 311.383 42.0859C310.602 42.8672 309.82 43.2578 309.043 44.0352L306.707 46.3711C305.926 47.1523 305.145 47.9336 304.754 49.1016C303.977 49.8828 303.586 51.0508 302.809 51.8281C302.418 53 302.027 53.7773 301.25 54.9453C300.859 56.1172 300.469 56.8984 300.078 58.0625C299.687 59.2344 299.301 60.4023 299.301 61.1797C299.301 61.5703 299.301 62.3516 298.91 62.7422C298.91 63.1328 298.91 63.9102 298.52 64.3008V69.7539C298.52 70.9258 298.52 71.707 298.91 72.8711C298.91 74.043 299.301 74.8242 299.691 75.9922C300.082 77.1602 300.473 77.9375 300.863 79.1094C301.25 79.8906 301.641 80.2773 301.641 81.0586L272.02 69.7539C267.134 68.2737 262.196 66.9746 257.215 65.8594C254.484 65.0781 251.758 64.6875 249.027 63.9063C241.295 62.3583 233.491 61.1889 225.645 60.4023H224.863C217.07 59.6211 209.668 59.2305 201.875 59.2305C196.027 59.2305 190.57 59.6211 185.117 60.0117C177.32 60.4023 169.531 61.5742 161.734 62.7422L155.887 63.9102C151.992 64.6914 148.094 65.4687 144.195 66.6367C142.246 67.0273 140.301 67.8086 138.352 68.1992C136.402 68.9766 134.453 69.7539 132.895 70.5352C131.336 71.3164 130.168 71.707 128.609 72.4844C128.219 72.4844 128.219 72.4844 127.828 72.875C126.656 73.6523 125.492 74.043 124.32 74.8203C123.93 74.8203 123.539 75.2109 123.539 75.2109C121.984 75.9922 120.812 76.7734 119.645 77.1602C118.863 77.5508 117.695 77.9414 116.918 78.332C116.527 78.7187 116.137 78.7188 115.746 79.1094C114.578 79.8906 113.41 80.2773 112.238 81.0547C111.07 81.8359 109.902 82.2266 109.121 83.0078C108.34 83.7852 107.172 84.1758 106.395 84.9531C106.395 84.9531 106.004 84.9531 106.004 85.3437C105.223 85.7344 104.445 86.5156 103.668 87.293L103.277 87.6836C102.496 88.0742 102.105 88.8516 101.328 89.2422C100.938 89.2422 100.937 89.6328 100.547 89.6328C99.7695 90.0234 99.3789 90.8008 98.6016 91.1875C98.6016 91.5781 98.2109 91.5781 98.2109 91.5781L95.8711 93.918L95.4805 94.3086L93.1445 96.6445C93.1445 96.6445 93.1445 97.0352 92.7539 97.0352L90.8047 98.9844C90.4141 99.375 90.0234 99.375 90.0234 99.7656L87.6875 102.102C87.6875 102.492 87.2969 102.492 87.2969 102.883L84.1797 105.996L83.7891 106.387C81.8438 108.727 79.5039 110.676 77.168 112.625C74.832 114.574 72.4883 116.52 69.7617 118.469C67.0352 120.418 64.6953 121.977 61.9688 123.535C59.2422 125.094 56.5117 126.262 53.7852 127.434C51.0547 128.602 48.3281 129.77 45.6016 130.551C40.1445 131.723 34.6875 134.059 30.0117 134.445C30.0117 132.5 28.8398 132.887 27.6719 132.887C26.5039 133.277 25.3359 133.277 24.5547 133.668C23.3828 134.059 22.6055 134.449 21.4375 134.84C20.3268 135.2 19.2761 135.724 18.3203 136.395C17.5391 137.176 16.3711 137.566 15.5938 138.348C14.8125 139.125 13.6406 139.902 12.8633 140.684C12.082 141.465 10.9141 142.242 10.1367 143.02C9.35547 143.801 8.57422 144.582 7.79688 145.75C7.01563 146.918 6.23828 147.695 5.84766 148.867C5.07031 149.648 4.67969 150.816 3.90234 151.984C3.51172 153.156 2.73047 154.32 2.33984 155.492L1.17188 159C0.78125 160.168 0.78125 160.945 0.390625 162.117V162.508C0 163.68 0 165.234 0 166.016C0.390625 165.625 0.390625 166.406 0.390625 167.184V168.742C0.390625 169.523 0.78125 170.301 0.78125 171.078C1.17188 171.859 1.17188 172.641 1.5625 173.418C1.94922 174.199 2.33984 174.977 3.11719 175.758C3.50781 176.539 4.28906 177.316 4.67969 178.094C5.45703 178.875 6.23438 179.656 7.01563 180.043C7.79688 180.824 8.57422 181.605 9.35156 181.992C12.4688 184.719 13.25 185.5 17.1484 187.836C17.9297 188.227 18.3164 188.617 19.0977 189.008H19.4883V189.789C19.4883 190.953 19.8789 191.734 20.2656 192.902C20.6563 194.074 21.0469 195.242 21.4375 196.02L22.6016 198.359C22.6016 198.75 22.9922 198.75 22.9922 199.141C23.3828 200.309 24.1641 201.086 24.5547 201.867C25.332 202.648 25.7227 203.816 26.5 204.594L28.8398 206.934L31.1758 209.27H31.5664C32.3477 210.051 33.125 210.441 33.9063 211.223C34.6875 212.004 35.8555 212.391 36.6328 212.777C37.4141 213.168 38.582 213.949 39.75 214.34C40.5312 214.73 41.3125 215.117 42.4766 215.117C42.4766 215.117 42.8672 215.117 42.8672 215.508C43.2578 215.508 44.0391 215.898 44.4297 215.898C44.0391 222.91 44.0391 229.535 44.8203 231.875C45.9844 234.602 51.832 226.418 57.2891 217.457C56.5078 226.418 56.1172 236.941 57.2891 240.059C58.8477 243.176 66.25 233.043 73.2656 222.129C164.457 201.086 247.855 264.219 256.82 353.465C255.258 339.434 238.109 331.641 229.93 333.59C226.031 342.941 219.406 355.414 208.887 362.816C209.668 354.241 209.277 345.668 207.715 337.098C204.988 348.789 199.531 360.09 191.738 369.441C179.656 370.223 167.187 364.375 160.949 355.414C160.559 355.023 160.168 354.242 159.781 353.852C159.391 353.074 159 351.906 158.609 351.125C158.219 350.344 157.832 349.176 157.832 348.398V343.723C157.832 342.941 158.223 341.77 158.613 340.992C159.004 340.215 159.004 339.043 159.395 338.266C159.781 337.484 160.172 336.316 160.949 335.539C163.289 329.301 163.289 324.234 159 321.508L156.664 320.336C156.273 320.336 155.492 319.949 155.102 319.949C154.711 319.949 154.324 319.559 153.934 319.559C153.156 319.168 151.988 319.168 151.207 318.777C150.426 318.387 149.258 318.387 148.48 318.387C147.699 318.387 146.527 318 145.75 318H143.805C142.633 318 141.852 318 141.074 318.391C140.293 318.391 139.125 318.781 138.348 318.781C137.566 319.172 136.398 319.172 135.617 319.562C134.84 319.949 134.059 320.34 132.891 320.727L130.551 321.898C100.543 341.383 118.473 387.367 138.738 400.617C130.941 402.18 123.148 403.734 120.809 405.297L120.418 405.688C125.875 409.191 131.723 411.922 137.957 414.258C146.141 416.988 155.105 419.324 159 420.496C169.523 422.832 180.438 423.613 191.348 422.832C248.246 418.934 295.012 375.289 303.582 318.391C303.973 319.563 303.973 320.727 304.363 321.898C304.754 324.234 305.145 326.574 305.535 329.301C305.926 330.473 305.926 331.641 305.926 332.809V333.199C305.926 334.371 306.313 335.539 306.313 336.707C306.313 338.266 306.703 339.434 306.703 340.992V357.359C306.703 358.531 306.313 359.312 306.313 360.48V361.648C306.313 362.82 305.922 363.988 305.922 365.547C305.531 366.715 305.531 367.883 305.141 369.055V369.445C304.75 370.613 304.75 371.781 304.363 372.949V373.34C303.973 374.512 303.973 375.68 303.582 376.848V377.238L302.414 380.746V381.137C302.023 382.305 301.633 383.863 301.246 385.031C300.855 386.203 300.465 387.371 299.684 388.93C299.297 390.098 298.906 391.656 298.129 392.824C297.738 393.996 296.957 395.164 296.566 396.723C296.18 397.895 295.398 399.062 295.012 400.23C295.012 400.621 294.621 401.012 294.621 401.012C294.621 401.012 294.621 401.402 294.23 401.402C286.047 418.156 273.578 432.965 257.988 444.656C256.816 445.437 256.039 446.219 254.871 446.996C254.48 447.387 254.09 447.387 254.09 447.777C253.309 448.555 252.141 448.945 251.363 449.723L251.754 450.504C253.699 450.113 255.262 450.113 257.207 449.723C260.715 449.332 263.832 448.551 267.34 447.773C268.121 447.773 269.293 447.383 270.07 446.992C270.852 446.992 271.238 446.602 272.016 446.602C272.793 446.602 273.969 446.215 274.746 446.215C275.527 445.824 276.305 445.824 277.082 445.434C289.945 442.32 302.414 438.031 314.496 432.965C293.84 461.023 266.562 483.629 234.605 498.434C249.414 497.266 264.223 494.93 278.641 490.641C330.415 475.437 374.105 440.43 400.23 393.215C394.777 422.832 383.082 451.281 365.547 476.223C378.02 468.039 389.32 458.293 399.844 447.773C428.68 417.766 447.773 379.184 454.012 338.266C458.301 358.531 459.859 379.574 457.91 400.23C551.051 270.457 465.703 136.008 429.852 100.543C429.852 100.152 429.461 100.152 429.461 99.7617C429.461 101.324 429.461 102.879 429.07 104.441C428.68 107.559 428.289 110.285 427.898 113.012C427.121 115.742 426.344 118.859 425.563 121.586C424.781 124.316 423.613 127.043 422.445 129.77C421.277 132.496 420.105 135.227 418.547 137.566C416.988 139.906 415.43 142.633 413.871 144.969C412.312 147.305 410.363 149.645 408.414 151.984C406.469 154.324 404.52 156.27 402.18 158.609C401.008 159.781 399.844 160.949 398.285 161.727C397.113 162.508 396.332 163.289 395.164 164.453C392.828 166.406 390.488 167.961 387.762 169.52C385.422 171.082 382.695 172.641 379.969 173.809L371.781 177.316C369.055 178.484 366.328 179.266 363.598 180.043C360.871 180.824 357.754 181.605 355.023 181.992C351.906 182.383 349.18 182.773 346.453 183.164C344.5 183.164 342.164 183.551 340.215 183.551C337.098 183.551 334.371 183.16 331.645 183.16C328.523 182.77 325.797 182.379 323.07 181.988C320.115 181.627 317.227 180.841 314.496 179.652C317.223 179.262 320.34 179.262 323.07 178.484C326.188 178.094 328.914 177.313 331.645 176.535C334.371 175.754 337.488 174.977 339.828 173.809L348.012 170.301C350.738 169.129 353.078 167.574 355.805 166.016C358.145 164.453 360.871 162.508 363.211 160.949C365.547 158.996 367.887 157.051 369.836 155.102C372.172 153.152 374.121 150.816 376.07 148.867C378.02 146.527 379.969 144.191 381.527 141.852C381.918 141.461 381.918 141.07 382.309 140.68C383.473 138.734 385.031 136.395 386.203 134.449C387.653 131.929 388.953 129.325 390.098 126.652C391.27 123.926 392.441 121.195 393.219 118.469L395.555 110.285C395.945 107.168 396.727 104.441 396.727 101.711C397.117 98.5937 397.117 95.8672 397.117 93.1367C397.117 91.1914 397.117 88.8516 396.727 86.9023C396.336 83.7852 395.945 81.0586 395.555 78.3281C395.164 75.2109 394.383 72.4844 393.605 69.7539C392.824 67.0273 391.656 64.3008 390.879 61.5703C389.707 58.8437 388.539 56.1172 387.371 53.7773C385.812 51.0508 384.645 48.7109 383.086 45.9844C381.523 43.6445 379.578 41.3047 378.02 38.9687C376.07 36.6289 374.121 34.6797 372.172 32.3437C371.004 31.1719 369.836 30.0039 368.664 29.2266C362.82 24.5508 356.973 20.6523 350.738 16.7539C349.957 16.3633 349.18 15.9727 348.012 15.582C342.945 11.3008 339.051 10.1289 335.156 8.57031Z" fill="#DF234F"/>
</g>
<defs>
<clipPath id="clip0_267_4">
<rect width="500" height="500" fill="white"/>
</clipPath>
</defs>
</svg>
