<svg width="500" height="500" viewBox="0 0 500 500" fill="none" xmlns="http://www.w3.org/2000/svg">
<path d="M250 0L31.25 125V375L250 500L468.75 375V125L250 0ZM375 359.375C375 363.519 373.354 367.493 370.424 370.424C367.493 373.354 363.519 375 359.375 375H320C317.659 374.999 315.349 374.471 313.24 373.457C311.13 372.443 309.275 370.968 307.813 369.141L187.5 218.75V359.375C187.5 363.519 185.854 367.493 182.924 370.424C179.993 373.354 176.019 375 171.875 375H140.625C136.481 375 132.507 373.354 129.576 370.424C126.646 367.493 125 363.519 125 359.375V140.625C125 136.481 126.646 132.507 129.576 129.576C132.507 126.646 136.481 125 140.625 125H180C182.341 125.001 184.651 125.529 186.76 126.543C188.87 127.557 190.725 129.032 192.188 130.859L312.5 281.25V140.625C312.5 136.481 314.146 132.507 317.076 129.576C320.007 126.646 323.981 125 328.125 125H359.375C363.519 125 367.493 126.646 370.424 129.576C373.354 132.507 375 136.481 375 140.625V359.375Z" fill="#43A047"/>
</svg>
