<svg width="500" height="500" viewBox="0 0 500 500" fill="none" xmlns="http://www.w3.org/2000/svg">
<path d="M366.441 359.813C369.508 334.293 368.59 330.547 387.598 334.684L392.422 335.105C407.039 335.77 426.16 332.754 437.394 327.535C461.578 316.313 475.914 297.582 452.074 302.5C397.684 313.723 393.945 295.305 393.945 295.305C451.379 210.09 475.387 101.914 454.66 75.4336C398.137 3.21095 300.297 37.3633 298.66 38.2461L298.137 38.3438C287.391 36.1133 275.363 34.7813 261.851 34.5625C237.238 34.1563 218.562 41.0156 204.394 51.7578C204.394 51.7578 29.8515 -20.1523 37.9726 142.191C39.6992 176.727 87.4726 403.512 144.457 335.012C165.285 309.965 185.41 288.785 185.41 288.785C195.402 295.422 207.371 298.813 219.918 297.594L220.891 296.766C220.586 299.875 220.719 302.918 221.277 306.52C206.602 322.922 210.914 325.801 181.566 331.84C151.871 337.957 169.316 348.852 180.703 351.699C194.512 355.152 226.453 360.043 248.039 329.832L247.18 333.277C252.937 337.887 252.551 366.391 253.363 386.754C254.18 407.121 255.543 426.125 259.695 437.332C263.848 448.539 268.746 477.395 307.316 469.129C339.551 462.238 364.195 452.297 366.441 359.813Z" fill="black"/>
<path d="M294.758 489.281C277.699 489.281 266.59 482.684 259.844 476.312C249.66 466.703 245.621 454.324 243.207 446.93L242.164 443.844C237.305 430.727 235.656 411.84 234.68 387.519C234.531 383.867 234.43 380.105 234.316 376.117C234.234 373.199 234.133 369.539 233.984 365.711C227.839 368.641 221.315 370.703 214.602 371.836C202.574 373.891 189.645 373.227 176.164 369.855C166.652 367.477 156.77 362.547 151.137 354.934C134.719 369.312 119.059 367.363 110.527 364.516C95.4765 359.496 82.0078 345.391 69.3476 321.402C60.3281 304.312 51.6055 282.047 43.418 255.219C29.1601 208.5 20.1015 159.293 19.2969 143.137C16.7656 92.5703 30.3789 56.4062 59.75 35.6601C106.082 2.93353 176.281 22.1796 201.875 30.9179C219.07 20.5546 239.301 15.5117 262.16 15.8749C274.437 16.0742 286.129 17.1523 296.988 19.0898C308.316 15.5273 330.691 10.414 356.305 10.7343C403.496 11.2968 442.602 29.6874 469.387 63.9179C488.504 88.3398 479.051 139.625 471.719 168.023C461.398 207.969 443.316 250.453 421.105 287.437C427.137 287.48 435.875 286.758 448.297 284.191C472.805 279.133 479.973 292.273 481.918 298.156C489.711 321.758 455.836 339.594 445.27 344.5C431.73 350.785 409.656 354.613 391.578 353.785L390.789 353.734L386.039 353.316L385.57 357.277L385.117 361.148C383.902 408.019 377.207 437.703 363.43 457.316C348.988 477.879 328.918 483.641 311.238 487.43C305.207 488.719 299.727 489.281 294.758 489.281ZM258.859 318.691C269.871 327.504 270.836 344.086 271.699 375.074C271.809 378.941 271.91 382.602 272.047 386.019C272.461 396.371 273.434 420.609 277.23 430.852C277.766 432.301 278.246 433.769 278.754 435.328C282.984 448.281 285.105 454.777 303.398 450.867C318.754 447.574 326.648 444.621 332.828 435.824C341.809 423.035 346.832 397.309 347.754 359.359L366.437 359.812L347.883 357.586L348.43 352.953C350.207 337.68 351.488 326.648 361.695 319.352C369.887 313.5 379.219 314.066 386.652 315.406C378.484 309.234 376.227 301.996 375.625 299.027L374.066 291.352L378.445 284.855C403.668 247.434 424.465 201.441 435.512 158.668C446.863 114.719 443.402 91.3788 439.941 86.9648C394.125 28.4218 314.676 52.5937 306.379 55.3359L304.977 56.0937L297.945 57.4023L294.344 56.6562C284.414 54.5937 273.383 53.4531 261.559 53.2617C242.98 52.9492 227.992 57.3398 215.703 66.664L207.176 73.1289L197.281 69.0546C176.141 60.4101 114.047 43.0312 81.2812 66.2382C63.0937 79.121 54.8086 104.363 56.6523 141.266C57.2617 153.449 65.539 199.57 79.1953 244.301C98.0664 306.117 115.215 326.652 122.375 329.039C123.625 329.461 126.867 326.941 130.094 323.066C143.547 306.939 157.478 291.216 171.867 275.918L182.687 264.531L195.77 273.223C201.043 276.727 206.859 278.715 212.832 279.09L244.031 252.48L239.512 298.605C239.41 299.641 239.359 301.051 239.766 303.668L241.125 312.41L235.227 319.004L234.547 319.769L251.687 327.68L258.859 318.691Z" fill="black"/>
<path d="M452.074 302.5C397.68 313.723 393.941 295.305 393.941 295.305C451.375 210.086 475.383 101.906 454.664 75.4335C398.141 3.21479 300.293 37.3671 298.66 38.2539L298.133 38.3476C287.387 36.1171 275.359 34.789 261.84 34.5703C237.227 34.1679 218.559 41.0234 204.391 51.7656C204.391 51.7656 29.8438 -20.1407 37.961 142.199C39.6875 176.738 87.461 403.523 144.445 335.023C165.273 309.977 185.395 288.797 185.395 288.797C195.391 295.434 207.356 298.824 219.898 297.605L220.875 296.777C220.57 299.887 220.711 302.93 221.266 306.531C206.586 322.934 210.898 325.812 181.551 331.852C151.856 337.969 169.301 348.863 180.691 351.711C194.496 355.164 226.441 360.055 248.023 329.844L247.16 333.289C252.914 337.898 256.953 363.258 256.277 386.246C255.602 409.234 255.145 425.019 259.68 437.348C264.211 449.676 268.727 477.41 307.305 469.144C339.539 462.238 356.242 444.336 358.57 414.477C360.219 393.246 363.949 396.387 364.188 377.406L367.184 368.422C370.637 339.644 367.731 330.363 387.594 334.68L392.418 335.102C407.035 335.766 426.164 332.75 437.395 327.531C461.574 316.316 475.914 297.582 452.074 302.5Z" fill="#336791"/>
<path d="M296.707 477.762C264.551 477.762 254.363 452.297 250.195 441.883C244.094 426.621 242.777 367.394 244.137 318.824C244.157 318.005 244.339 317.198 244.672 316.45C245.006 315.701 245.484 315.026 246.08 314.463C246.675 313.901 247.376 313.461 248.142 313.17C248.908 312.88 249.724 312.743 250.543 312.769C251.361 312.792 252.167 312.975 252.914 313.309C253.661 313.643 254.335 314.121 254.898 314.715C255.46 315.31 255.899 316.01 256.191 316.774C256.483 317.539 256.621 318.354 256.598 319.172C255.031 375.191 257.254 425.957 261.769 437.254C268.816 454.867 279.504 470.273 309.719 463.801C338.402 457.648 349.144 446.773 353.93 419.035C357.602 397.75 364.863 337.195 365.758 325.246C365.818 324.429 366.038 323.633 366.406 322.901C366.775 322.17 367.284 321.519 367.904 320.985C368.525 320.45 369.245 320.044 370.022 319.789C370.8 319.533 371.621 319.434 372.437 319.496C374.085 319.621 375.616 320.394 376.694 321.647C377.772 322.899 378.309 324.528 378.187 326.176C377.254 338.617 370.027 399.055 366.215 421.156C360.566 453.918 345.961 468.777 312.332 475.988C306.617 477.211 301.426 477.758 296.707 477.762ZM122.348 353.383C119.537 353.374 116.746 352.912 114.082 352.016C93.1953 345.047 73.3007 311.031 54.9492 250.902C40.9804 205.133 32.1288 157.359 31.3515 141.832C29.0507 95.8007 40.9023 63.2343 66.5859 45.0429C117.394 9.04287 202.867 43.3241 206.48 44.8007C208.011 45.4259 209.231 46.6336 209.871 48.1581C210.511 49.6825 210.52 51.3989 209.894 52.9296C209.269 54.4603 208.062 55.6799 206.537 56.3202C205.013 56.9604 203.296 56.9689 201.766 56.3437C200.941 56.0077 118.98 23.1718 73.7656 55.2304C51.8046 70.8007 41.7226 99.7304 43.7968 141.211C44.4492 154.293 52.7187 200.918 66.8671 247.262C83.2499 300.941 101.894 334.812 118.023 340.191C120.555 341.035 128.258 343.601 139.269 330.359C152.111 314.936 165.434 299.921 179.219 285.336C180.372 284.185 181.93 283.532 183.559 283.516C185.188 283.5 186.759 284.122 187.935 285.249C189.111 286.376 189.799 287.919 189.852 289.547C189.905 291.175 189.319 292.76 188.219 293.961C188.031 294.156 169.285 313.754 148.855 338.332C139.18 349.969 129.906 353.383 122.348 353.383ZM393.555 300.863C392.425 300.862 391.316 300.553 390.348 299.97C389.38 299.388 388.588 298.553 388.058 297.555C387.528 296.557 387.278 295.434 387.337 294.306C387.396 293.177 387.76 292.086 388.391 291.148C446.449 204.996 466.828 100.898 449.375 78.5937C427.406 50.5233 396.387 35.8632 357.172 35.0155C328.137 34.3905 305.059 41.8046 301.285 43.0976L300.336 43.4843C296.543 44.6757 293.633 42.5976 292.535 40.1679C291.909 38.7758 291.814 37.2029 292.268 35.7457C292.723 34.2885 293.694 33.0479 295 32.2577C295.18 32.1522 295.75 31.9101 296.676 31.5702C303.086 29.2226 326.516 22.1913 355.535 22.5233C398.926 22.9843 434.769 39.7147 459.184 70.914C470.734 85.6757 470.762 119.683 459.258 164.223C447.531 209.633 425.465 258.434 398.723 298.117C397.527 299.902 395.559 300.863 393.555 300.863ZM396.523 340.746C386.609 340.746 377.723 339.348 372.402 336.16C366.934 332.883 365.891 328.43 365.754 326.066C364.262 299.855 378.723 295.293 386.098 293.211C385.07 291.656 383.609 289.828 382.098 287.941C377.797 282.566 371.906 275.207 367.367 264.199C366.656 262.48 364.43 258.484 361.852 253.855C347.871 228.785 318.781 176.617 337.469 149.902C346.117 137.539 363.34 132.672 388.715 135.387C381.25 112.644 345.703 41.5038 261.355 40.121C235.988 39.6991 215.184 47.4999 199.551 63.2851C164.551 98.6327 165.816 162.59 165.836 163.23C165.857 164.049 165.718 164.863 165.424 165.627C165.131 166.391 164.69 167.09 164.127 167.684C163.564 168.278 162.889 168.755 162.141 169.088C161.394 169.421 160.588 169.603 159.769 169.625C158.951 169.646 158.137 169.507 157.373 169.213C156.609 168.92 155.91 168.479 155.316 167.916C154.722 167.353 154.245 166.678 153.912 165.93C153.579 165.183 153.396 164.377 153.375 163.558C153.297 160.719 151.992 93.6015 190.695 54.5116C208.809 36.2187 232.652 27.1874 261.562 27.6601C315.523 28.5468 350.258 55.9804 369.891 78.8358C391.293 103.746 401.785 131.223 402.648 140.394C403.293 147.215 398.398 148.578 397.41 148.781L395.16 148.832C370.258 144.844 354.281 147.613 347.676 157.051C333.461 177.367 360.98 226.715 372.73 247.789C375.73 253.164 377.894 257.051 378.887 259.449C382.746 268.808 387.781 275.098 391.824 280.152C395.383 284.598 398.465 288.453 399.566 292.976C400.078 293.875 407.34 304.617 450.43 295.723C461.23 293.496 467.707 295.398 469.687 301.387C473.582 313.164 451.73 326.902 439.633 332.519C428.793 337.559 411.492 340.746 396.523 340.746ZM378.18 325.039C379.547 326.418 386.387 328.797 400.551 328.187C413.144 327.648 426.426 324.91 434.394 321.211C444.586 316.476 451.391 311.184 454.914 307.57L452.961 307.93C425.41 313.617 405.922 312.859 395.039 305.676C394.307 305.193 393.603 304.67 392.93 304.109C391.75 304.574 390.66 304.879 389.883 305.098C383.711 306.828 377.328 308.621 378.18 325.039ZM200.203 359.863C193.359 359.863 186.156 358.93 178.801 357.09C171.18 355.184 158.332 349.445 158.527 340.019C158.75 329.445 174.129 326.273 179.918 325.082C200.832 320.773 202.195 319.047 208.73 310.746C210.637 308.328 213.008 305.316 216.242 301.707C221.043 296.332 226.289 293.609 231.836 293.609C235.699 293.609 238.867 294.918 240.961 295.789C247.633 298.555 253.199 305.242 255.488 313.238C257.555 320.453 256.566 327.398 252.715 332.793C240.07 350.5 221.91 359.863 200.203 359.863ZM171.992 340.555C173.871 342.008 177.637 343.949 181.828 344.996C188.199 346.59 194.379 347.398 200.207 347.398C217.965 347.398 232.223 340.047 242.578 325.547C244.738 322.523 244.09 318.684 243.512 316.664C242.301 312.434 239.293 308.586 236.195 307.301C234.516 306.605 233.121 306.074 231.84 306.074C231.152 306.074 229.059 306.074 225.535 310.016C223.103 312.75 220.766 315.567 218.527 318.461C210.387 328.797 206.656 332.305 182.437 337.293C176.527 338.504 173.496 339.738 171.992 340.555ZM219.918 311.805C218.43 311.802 216.992 311.268 215.864 310.298C214.735 309.328 213.991 307.986 213.766 306.516C213.609 305.481 213.505 304.439 213.453 303.394C197.578 303.098 182.262 296.285 170.633 284.152C155.93 268.812 149.238 247.559 152.277 225.844C155.578 202.262 154.344 181.445 153.68 170.262C153.496 167.152 153.363 164.906 153.371 163.351C153.383 161.379 153.422 156.148 170.906 147.285C177.125 144.133 189.594 138.633 203.215 137.223C225.781 134.891 240.656 144.941 245.109 165.527C257.129 221.105 246.062 245.687 237.98 263.641C236.477 266.984 235.055 270.141 233.918 273.199L232.914 275.894C228.644 287.344 224.953 297.234 226.086 304.621C226.21 305.43 226.174 306.256 225.979 307.051C225.784 307.846 225.435 308.594 224.951 309.254C224.466 309.914 223.857 310.472 223.157 310.896C222.457 311.32 221.68 311.603 220.871 311.726L219.918 311.805ZM165.875 165.078L166.117 169.527C166.805 181.144 168.086 202.762 164.617 227.574C162.113 245.484 167.582 262.965 179.629 275.527C189.148 285.457 201.676 290.937 214.551 290.937H214.816C216.258 284.863 218.652 278.449 221.23 271.539L222.227 268.859C223.512 265.406 225.016 262.062 226.609 258.523C234.387 241.242 244.07 219.73 232.918 168.164C230.711 157.949 225.355 152.039 216.555 150.09C198.477 146.098 171.535 159.695 165.875 165.078ZM203.492 162.433C203.18 164.637 207.527 170.519 213.199 171.305C218.859 172.098 223.703 167.496 224.012 165.293C224.32 163.09 219.977 160.66 214.305 159.871C208.633 159.082 203.793 160.23 203.492 162.433ZM214.5 173.473L212.91 173.363C209.394 172.875 205.84 170.66 203.406 167.433C202.551 166.301 201.156 164.105 201.434 162.144C201.828 159.269 205.336 157.547 210.809 157.547C212.031 157.547 213.305 157.637 214.586 157.816C217.578 158.23 220.355 159.094 222.406 160.238C225.961 162.223 226.223 164.437 226.062 165.582C225.625 168.758 220.574 173.473 214.5 173.473ZM205.559 162.801C205.734 164.16 209.102 168.644 213.484 169.25L214.504 169.32C218.551 169.32 221.574 166.137 221.93 165.094C221.555 164.383 218.953 162.617 214.019 161.93C212.957 161.779 211.885 161.702 210.812 161.699C207.641 161.699 205.957 162.414 205.559 162.801ZM375.891 157.937C376.199 160.141 371.855 166.023 366.187 166.812C360.523 167.601 355.676 163.004 355.363 160.801C355.066 158.598 359.41 156.164 365.074 155.379C370.738 154.586 375.578 155.738 375.891 157.937ZM364.879 167.937C359.426 167.937 354.719 163.695 354.332 160.941C353.883 157.637 359.324 155.125 364.926 154.348C366.16 154.176 367.383 154.09 368.559 154.09C373.394 154.09 376.598 155.508 376.918 157.797C377.125 159.277 375.988 161.562 374.031 163.625C372.738 164.98 370.023 167.328 366.324 167.84L364.879 167.937ZM368.562 156.168C367.479 156.168 366.365 156.247 365.219 156.406C359.59 157.191 356.23 159.449 356.394 160.66C356.582 161.992 360.176 165.863 364.883 165.863L366.043 165.781C369.117 165.355 371.426 163.348 372.527 162.191C374.258 160.375 374.945 158.664 374.863 158.082C374.754 157.309 372.676 156.168 368.562 156.168ZM384.051 284.461C382.921 284.462 381.813 284.155 380.845 283.574C379.876 282.994 379.084 282.16 378.553 281.164C378.022 280.168 377.771 279.045 377.829 277.918C377.886 276.79 378.249 275.699 378.879 274.762C392.152 254.937 389.723 234.723 387.375 215.172C386.371 206.844 385.34 198.23 385.605 189.965C385.879 181.461 386.961 174.445 388.004 167.66C389.242 159.621 390.414 152.027 389.93 143.012C389.886 142.194 390.003 141.377 390.275 140.605C390.547 139.833 390.968 139.122 391.515 138.513C392.061 137.904 392.723 137.409 393.461 137.055C394.199 136.702 394.999 136.497 395.816 136.453C396.634 136.409 397.451 136.526 398.223 136.798C398.995 137.07 399.706 137.491 400.315 138.038C401.545 139.142 402.286 140.689 402.375 142.34C402.93 152.644 401.605 161.238 400.324 169.555C399.336 175.973 398.312 182.609 398.066 190.363C397.828 197.683 398.762 205.457 399.75 213.683C402.25 234.473 405.082 258.035 389.238 281.695C388.667 282.546 387.895 283.244 386.99 283.726C386.085 284.208 385.076 284.461 384.051 284.461Z" fill="white"/>
</svg>
