<svg width="500" height="498" viewBox="0 0 500 498" fill="none" xmlns="http://www.w3.org/2000/svg">
<path d="M294.23 0.5625C290.723 0.5625 287.215 1.33984 284.098 2.50781C290.723 6.79688 294.23 12.6406 296.18 19.2656C296.18 20.0469 296.57 20.8281 296.57 21.6055C296.57 22.3867 296.961 23.1641 296.961 23.9414C297.352 35.2461 293.84 36.8047 291.504 43.4297C287.605 52 288.777 61.3555 293.453 68.7578C293.844 69.5391 294.234 70.7109 295.012 71.4883C289.945 38.7539 317.223 34.0742 322.289 23.9414C322.68 14.9805 315.277 9.13672 309.43 4.84766C303.586 1.33984 298.906 0.558594 294.234 0.558594L294.23 0.5625ZM335.156 7.57031C334.766 10.6875 335.156 9.91016 334.766 11.4688C334.766 12.6367 334.766 13.8047 334.375 14.9766C333.984 16.1445 333.984 16.9258 333.594 18.0938C333.203 19.2617 332.816 20.043 332.426 21.2109C332.035 21.9922 331.645 22.7695 331.254 23.9375C330.867 24.3281 330.477 25.1094 330.09 25.5C329.699 25.8906 329.699 26.2773 329.309 26.668C328.527 27.4492 328.137 28.6133 327.359 29.3945L325.023 31.7344C324.242 32.5156 323.461 33.293 322.684 33.6797C319.957 35.6328 316.84 37.1875 314.109 39.1367C313.328 39.918 312.16 40.3086 311.383 41.0859C310.602 41.8672 309.82 42.2578 309.043 43.0352L306.707 45.3711C305.926 46.1523 305.145 46.9336 304.754 48.1016C303.977 48.8828 303.586 50.0508 302.809 50.8281C302.418 52 302.027 52.7773 301.25 53.9453C300.859 55.1172 300.469 55.8984 300.078 57.0625C299.688 58.2344 299.301 59.4023 299.301 60.1797C299.301 60.5703 299.301 61.3516 298.91 61.7422C298.91 62.1328 298.91 62.9102 298.52 63.3008V68.7539C298.52 69.9258 298.52 70.707 298.91 71.8711C298.91 73.043 299.301 73.8242 299.691 74.9922C300.082 76.1602 300.473 76.9375 300.863 78.1094C301.25 78.8906 301.641 79.2773 301.641 80.0586L272.02 68.7539C267.134 67.2737 262.196 65.9746 257.215 64.8594C254.484 64.0781 251.758 63.6875 249.027 62.9062C241.295 61.3583 233.491 60.1889 225.645 59.4023H224.863C217.07 58.6211 209.668 58.2305 201.875 58.2305C196.027 58.2305 190.57 58.6211 185.117 59.0117C177.32 59.4023 169.531 60.5742 161.734 61.7422L155.887 62.9102C151.992 63.6914 148.094 64.4688 144.195 65.6367C142.246 66.0273 140.301 66.8086 138.352 67.1992C136.402 67.9766 134.453 68.7539 132.895 69.5352C131.336 70.3164 130.168 70.707 128.609 71.4844C128.219 71.4844 128.219 71.4844 127.828 71.875C126.656 72.6523 125.492 73.043 124.32 73.8203C123.93 73.8203 123.539 74.2109 123.539 74.2109C121.984 74.9922 120.812 75.7734 119.645 76.1602C118.863 76.5508 117.695 76.9414 116.918 77.332C116.527 77.7188 116.137 77.7188 115.746 78.1094C114.578 78.8906 113.41 79.2773 112.238 80.0547C111.07 80.8359 109.902 81.2266 109.121 82.0078C108.34 82.7852 107.172 83.1758 106.395 83.9531C106.395 83.9531 106.004 83.9531 106.004 84.3438C105.223 84.7344 104.445 85.5156 103.668 86.293L103.277 86.6836C102.496 87.0742 102.105 87.8516 101.328 88.2422C100.938 88.2422 100.938 88.6328 100.547 88.6328C99.7695 89.0234 99.3789 89.8008 98.6016 90.1875C98.6016 90.5781 98.2109 90.5781 98.2109 90.5781L93.1445 95.6445C93.1445 95.6445 93.1445 96.0352 92.7539 96.0352L90.8047 97.9844C90.4141 98.375 90.0234 98.375 90.0234 98.7656L87.6875 101.102C87.6875 101.492 87.2969 101.492 87.2969 101.883L83.7891 105.387C81.8438 107.727 79.5039 109.676 77.168 111.625C74.832 113.574 72.4883 115.52 69.7617 117.469C67.0352 119.418 64.6953 120.977 61.9688 122.535C59.2422 124.094 56.5117 125.262 53.7852 126.434C51.0547 127.602 48.3281 128.77 45.6016 129.551C40.1445 130.723 34.6875 133.059 30.0117 133.445C30.0117 131.5 28.8398 131.887 27.6719 131.887C26.5039 132.277 25.3359 132.277 24.5547 132.668C23.3828 133.059 22.6055 133.449 21.4375 133.84C20.3268 134.2 19.2761 134.724 18.3203 135.395C17.5391 136.176 16.3711 136.566 15.5938 137.348C14.8125 138.125 13.6406 138.902 12.8633 139.684C12.082 140.465 10.9141 141.242 10.1367 142.02C9.35547 142.801 8.57422 143.582 7.79688 144.75C7.01562 145.918 6.23828 146.695 5.84766 147.867C5.07031 148.648 4.67969 149.816 3.90234 150.984C3.51172 152.156 2.73047 153.32 2.33984 154.492L1.17188 158C0.78125 159.168 0.78125 159.945 0.390625 161.117V161.508C0 162.68 0 164.234 0 165.016C0.390625 164.625 0.390625 165.406 0.390625 166.184V167.742C0.390625 168.523 0.78125 169.301 0.78125 170.078C1.17188 170.859 1.17188 171.641 1.5625 172.418C1.94922 173.199 2.33984 173.977 3.11719 174.758C3.50781 175.539 4.28906 176.316 4.67969 177.094C5.45703 177.875 6.23438 178.656 7.01562 179.043C7.79688 179.824 8.57422 180.605 9.35156 180.992C12.4688 183.719 13.25 184.5 17.1484 186.836C17.9297 187.227 18.3164 187.617 19.0977 188.008H19.4883V188.789C19.4883 189.953 19.8789 190.734 20.2656 191.902C20.6562 193.074 21.0469 194.242 21.4375 195.02L22.6016 197.359C22.6016 197.75 22.9922 197.75 22.9922 198.141C23.3828 199.309 24.1641 200.086 24.5547 200.867C25.332 201.648 25.7227 202.816 26.5 203.594L31.1758 208.27H31.5664C32.3477 209.051 33.125 209.441 33.9062 210.223C34.6875 211.004 35.8555 211.391 36.6328 211.777C37.4141 212.168 38.582 212.949 39.75 213.34C40.5312 213.73 41.3125 214.117 42.4766 214.117C42.4766 214.117 42.8672 214.117 42.8672 214.508C43.2578 214.508 44.0391 214.898 44.4297 214.898C44.0391 221.91 44.0391 228.535 44.8203 230.875C45.9844 233.602 51.832 225.418 57.2891 216.457C56.5078 225.418 56.1172 235.941 57.2891 239.059C58.8477 242.176 66.25 232.043 73.2656 221.129C164.457 200.086 247.855 263.219 256.82 352.465C255.258 338.434 238.109 330.641 229.93 332.59C226.031 341.941 219.406 354.414 208.887 361.816C209.668 353.241 209.277 344.668 207.715 336.098C204.988 347.789 199.531 359.09 191.738 368.441C179.656 369.223 167.188 363.375 160.949 354.414C160.559 354.023 160.168 353.242 159.781 352.852C159.391 352.074 159 350.906 158.609 350.125C158.219 349.344 157.832 348.176 157.832 347.398V342.723C157.832 341.941 158.223 340.77 158.613 339.992C159.004 339.215 159.004 338.043 159.395 337.266C159.781 336.484 160.172 335.316 160.949 334.539C163.289 328.301 163.289 323.234 159 320.508L156.664 319.336C156.273 319.336 155.492 318.949 155.102 318.949C154.711 318.949 154.324 318.559 153.934 318.559C153.156 318.168 151.988 318.168 151.207 317.777C150.426 317.387 149.258 317.387 148.48 317.387C147.699 317.387 146.527 317 145.75 317H143.805C142.633 317 141.852 317 141.074 317.391C140.293 317.391 139.125 317.781 138.348 317.781C137.566 318.172 136.398 318.172 135.617 318.562C134.84 318.949 134.059 319.34 132.891 319.727L130.551 320.898C100.543 340.383 118.473 386.367 138.738 399.617C130.941 401.18 123.148 402.734 120.809 404.297L120.418 404.688C125.875 408.191 131.723 410.922 137.957 413.258C146.141 415.988 155.105 418.324 159 419.496C169.523 421.832 180.438 422.613 191.348 421.832C248.246 417.934 295.012 374.289 303.582 317.391C303.973 318.562 303.973 319.727 304.363 320.898C304.754 323.234 305.145 325.574 305.535 328.301C305.926 329.473 305.926 330.641 305.926 331.809V332.199C305.926 333.371 306.312 334.539 306.312 335.707C306.312 337.266 306.703 338.434 306.703 339.992V356.359C306.703 357.531 306.312 358.312 306.312 359.48V360.648C306.312 361.82 305.922 362.988 305.922 364.547C305.531 365.715 305.531 366.883 305.141 368.055V368.445C304.75 369.613 304.75 370.781 304.363 371.949V372.34C303.973 373.512 303.973 374.68 303.582 375.848V376.238L302.414 379.746V380.137C302.023 381.305 301.633 382.863 301.246 384.031C300.855 385.203 300.465 386.371 299.684 387.93C299.297 389.098 298.906 390.656 298.129 391.824C297.738 392.996 296.957 394.164 296.566 395.723C296.18 396.895 295.398 398.062 295.012 399.23C295.012 399.621 294.621 400.012 294.621 400.012C294.621 400.012 294.621 400.402 294.23 400.402C286.047 417.156 273.578 431.965 257.988 443.656C256.816 444.438 256.039 445.219 254.871 445.996C254.48 446.387 254.09 446.387 254.09 446.777C253.309 447.555 252.141 447.945 251.363 448.723L251.754 449.504C253.699 449.113 255.262 449.113 257.207 448.723C260.715 448.332 263.832 447.551 267.34 446.773C268.121 446.773 269.293 446.383 270.07 445.992C270.852 445.992 271.238 445.602 272.016 445.602C272.793 445.602 273.969 445.215 274.746 445.215C275.527 444.824 276.305 444.824 277.082 444.434C289.945 441.32 302.414 437.031 314.496 431.965C293.84 460.023 266.562 482.629 234.605 497.434C249.414 496.266 264.223 493.93 278.641 489.641C330.415 474.437 374.105 439.43 400.23 392.215C394.777 421.832 383.082 450.281 365.547 475.223C378.02 467.039 389.32 457.293 399.844 446.773C428.68 416.766 447.773 378.184 454.012 337.266C458.301 357.531 459.859 378.574 457.91 399.23C551.051 269.457 465.703 135.008 429.852 99.543C429.852 99.1523 429.461 99.1523 429.461 98.7617C429.461 100.324 429.461 101.879 429.07 103.441C428.68 106.559 428.289 109.285 427.898 112.012C427.121 114.742 426.344 117.859 425.562 120.586C424.781 123.316 423.613 126.043 422.445 128.77C421.277 131.496 420.105 134.227 418.547 136.566C416.988 138.906 415.43 141.633 413.871 143.969C412.312 146.305 410.363 148.645 408.414 150.984C406.469 153.324 404.52 155.27 402.18 157.609C401.008 158.781 399.844 159.949 398.285 160.727C397.113 161.508 396.332 162.289 395.164 163.453C392.828 165.406 390.488 166.961 387.762 168.52C385.422 170.082 382.695 171.641 379.969 172.809L371.781 176.316C369.055 177.484 366.328 178.266 363.598 179.043C360.871 179.824 357.754 180.605 355.023 180.992C351.906 181.383 349.18 181.773 346.453 182.164C344.5 182.164 342.164 182.551 340.215 182.551C337.098 182.551 334.371 182.16 331.645 182.16C328.523 181.77 325.797 181.379 323.07 180.988C320.115 180.627 317.226 179.841 314.496 178.652C317.223 178.262 320.34 178.262 323.07 177.484C326.188 177.094 328.914 176.313 331.645 175.535C334.371 174.754 337.488 173.977 339.828 172.809L348.012 169.301C350.738 168.129 353.078 166.574 355.805 165.016C358.145 163.453 360.871 161.508 363.211 159.949C365.547 157.996 367.887 156.051 369.836 154.102C372.172 152.152 374.121 149.816 376.07 147.867C378.02 145.527 379.969 143.191 381.527 140.852C381.918 140.461 381.918 140.07 382.309 139.68C383.473 137.734 385.031 135.395 386.203 133.449C387.653 130.929 388.953 128.325 390.098 125.652C391.27 122.926 392.441 120.195 393.219 117.469L395.555 109.285C395.945 106.168 396.727 103.441 396.727 100.711C397.117 97.5938 397.117 94.8672 397.117 92.1367C397.117 90.1914 397.117 87.8516 396.727 85.9023C396.336 82.7852 395.945 80.0586 395.555 77.3281C395.164 74.2109 394.383 71.4844 393.605 68.7539C392.824 66.0273 391.656 63.3008 390.879 60.5703C389.707 57.8438 388.539 55.1172 387.371 52.7773C385.812 50.0508 384.645 47.7109 383.086 44.9844C381.523 42.6445 379.578 40.3047 378.02 37.9688C376.07 35.6289 374.121 33.6797 372.172 31.3437C371.004 30.1719 369.836 29.0039 368.664 28.2266C362.82 23.5508 356.973 19.6523 350.738 15.7539C349.957 15.3633 349.18 14.9727 348.012 14.582C342.945 10.3008 339.051 9.12891 335.156 7.57031Z" fill="#DF234F"/>
</svg>
