<?xml version="1.0" encoding="utf-8"?>
<svg xmlns="http://www.w3.org/2000/svg">
<symbol id='css' fill="none"  viewBox="0 0 500 500"><path d="M62.5 41.6667L95.375 413.208L250 458.333L405.583 413.229L437.5 41.6667H62.5ZM339.583 348.375L250.146 373.458H250L160.479 348.375L154.292 282.396H198.208L201.333 314.188L249.979 327.5L298.729 314.167L303.833 250.625H152.375L148.479 208.833H307.646L311.271 167.042H144.25L140.583 125.25H359.458L339.583 348.375Z" fill="currentColor"/></symbol>
<symbol id='docker' fill="none"  viewBox="0 0 500 500"><path d="M454.375 213.542C453.125 212.708 442.708 204.583 420.208 204.583C414.375 204.583 408.542 205.208 402.708 206.25C398.333 177.083 373.958 162.292 372.917 161.667L366.875 158.125L363.125 163.75C358.125 171.25 354.167 179.792 352.5 188.542C348.333 205.208 350.833 221.042 359.375 234.583C349.167 240.417 332.5 241.875 328.958 241.875H54.5834C47.5001 241.875 41.6667 247.708 41.6667 255C41.6667 278.958 45.4167 302.917 53.7501 325.417C63.1251 350.208 77.2917 368.542 95.4167 379.792C115.833 392.292 149.375 399.375 187.5 399.375C203.958 399.375 221.042 397.917 237.917 394.792C261.25 390.625 283.75 382.5 304.375 370.625C321.457 360.857 336.746 348.246 349.583 333.333C371.458 308.958 384.375 281.25 393.75 257.292H397.708C421.458 257.292 436.25 247.708 444.375 239.583C449.792 234.583 453.75 228.542 456.667 221.458L458.333 216.458L454.375 213.542ZM80.2084 234.167H116.875C118.542 234.167 120.208 232.708 120.208 230.833V197.917C120.208 196.25 118.75 194.583 116.875 194.583H80.2084C78.3334 194.583 76.8751 196.042 76.8751 197.917V230.833C77.0834 232.708 78.3334 234.167 80.2084 234.167ZM130.833 234.167H167.5C169.167 234.167 170.833 232.708 170.833 230.833V197.917C170.833 196.25 169.375 194.583 167.5 194.583H130.833C128.958 194.583 127.5 196.042 127.5 197.917V230.833C127.708 232.708 128.958 234.167 130.833 234.167ZM182.292 234.167H218.75C220.833 234.167 222.292 232.708 222.292 230.833V197.917C222.292 196.25 221.042 194.583 218.75 194.583H182.292C180.625 194.583 179.167 196.042 179.167 197.917V230.833C179.167 232.708 180.417 234.167 182.292 234.167ZM233.125 234.167H270C271.667 234.167 273.125 232.708 273.125 230.833V197.917C273.125 196.25 271.875 194.583 270 194.583H233.125C231.458 194.583 230 196.042 230 197.917V230.833C230 232.708 231.458 234.167 233.125 234.167ZM130.833 187.5H167.5C169.167 187.5 170.833 185.625 170.833 183.75V151.042C170.833 149.167 169.375 147.708 167.5 147.708H130.833C128.958 147.708 127.5 148.958 127.5 151.042V183.75C127.708 185.625 128.958 187.5 130.833 187.5ZM182.292 187.5H218.75C220.833 187.5 222.292 185.625 222.292 183.75V151.042C222.292 149.167 221.042 147.708 218.75 147.708H182.292C180.625 147.708 179.167 148.958 179.167 151.042V183.75C179.167 185.625 180.417 187.5 182.292 187.5ZM233.125 187.5H270C271.667 187.5 273.125 185.625 273.125 183.75V151.042C273.125 149.167 271.667 147.708 270 147.708H233.125C231.458 147.708 230 148.958 230 151.042V183.75C230 185.625 231.458 187.5 233.125 187.5ZM233.125 140H270C271.667 140 273.125 138.542 273.125 136.667V104.167C273.125 102.083 271.667 100.625 270 100.625H233.125C231.458 100.625 230 101.875 230 104.167V136.667C230 138.333 231.458 140 233.125 140ZM284.375 234.167H321.042C322.917 234.167 324.375 232.708 324.375 230.833V197.917C324.375 196.25 322.917 194.583 321.042 194.583H284.375C282.708 194.583 281.25 196.042 281.25 197.917V230.833C281.25 232.708 282.708 234.167 284.375 234.167Z" fill="currentColor"/></symbol>
<symbol id='downloader' fill="none"  viewBox="0 0 418 313"><g clip-path="url(#a)"><path d="M396.5 0.166669H21.4999C17.7033 0.178572 13.9817 1.22572 10.7359 3.19538C7.49002 5.16504 4.84283 7.9826 3.07921 11.3448C1.31559 14.7071 0.502325 18.4867 0.726973 22.2767C0.95162 26.0668 2.20566 29.7238 4.35411 32.8542L191.854 303.688C199.625 314.917 218.333 314.917 226.125 303.688L413.625 32.8542C415.795 29.7303 417.068 26.0715 417.305 22.2751C417.542 18.4787 416.734 14.69 414.968 11.3207C413.203 7.95132 410.548 5.13013 407.292 3.16367C404.036 1.19721 400.304 0.160678 396.5 0.166669Z" fill="currentColor"/></g><defs><clipPath id="a"><rect width="418" height="313" fill="white"/></clipPath></defs></symbol>
<symbol id='email' viewBox="0 0 500 500" fill="none" ><path d="M416.667 83.3333H83.3334C60.4167 83.3333 41.8751 102.083 41.8751 125L41.6667 375C41.6667 397.917 60.4167 416.667 83.3334 416.667H416.667C439.583 416.667 458.333 397.917 458.333 375V125C458.333 102.083 439.583 83.3333 416.667 83.3333ZM408.333 171.875L261.042 263.958C254.375 268.125 245.625 268.125 238.958 263.958L91.6667 171.875C89.5777 170.702 87.7484 169.118 86.2894 167.218C84.8305 165.318 83.7722 163.141 83.1787 160.82C82.5853 158.499 82.4689 156.082 82.8367 153.715C83.2045 151.347 84.0488 149.079 85.3184 147.048C86.5881 145.016 88.2568 143.264 90.2235 141.896C92.1902 140.528 94.4141 139.573 96.7604 139.089C99.1067 138.606 101.527 138.603 103.874 139.082C106.221 139.561 108.447 140.511 110.417 141.875L250 229.167L389.583 141.875C391.553 140.511 393.779 139.561 396.126 139.082C398.473 138.603 400.893 138.606 403.24 139.089C405.586 139.573 407.81 140.528 409.777 141.896C411.743 143.264 413.412 145.016 414.682 147.048C415.951 149.079 416.796 151.347 417.163 153.715C417.531 156.082 417.415 158.499 416.821 160.82C416.228 163.141 415.17 165.318 413.711 167.218C412.252 169.118 410.422 170.702 408.333 171.875Z" fill="currentColor"/></symbol>
<symbol id='express' fill="none"  viewBox="0 0 500 500"><path d="M494.805 384.531C476.992 389.063 465.977 384.727 456.094 369.883C433.906 336.641 409.414 304.922 385.781 272.617C382.734 268.438 379.57 264.336 375.625 259.141C347.656 296.875 319.727 332.813 293.516 370.195C284.141 383.555 274.297 389.375 256.797 384.649L361.953 243.516L264.062 116.055C280.898 112.774 292.539 114.453 302.852 129.531C325.625 162.813 350.742 194.492 375.781 228.008C400.977 194.609 425.781 162.891 449.219 129.922C458.633 116.563 468.75 111.484 485.664 116.406C472.852 133.399 460.312 150.117 447.695 166.719C430.664 189.102 413.945 211.758 396.289 233.672C390 241.484 391.016 246.563 396.641 253.945C429.297 296.875 461.562 340.234 494.805 384.531ZM5.19531 241.172C8.00781 227.07 9.88281 212.695 13.7891 198.867C37.2266 115.156 133.32 80.3516 199.336 132.227C238.008 162.656 247.617 205.547 245.703 253.906H27.7344C24.4531 340.664 86.9141 393.047 166.523 366.328C194.453 356.953 210.898 335.078 219.141 307.734C223.32 294.024 230.234 291.875 243.125 295.781C236.523 330 221.563 358.594 190.313 376.484C143.438 403.281 76.5234 394.609 41.3281 357.383C20.5469 335.508 11.7188 308.281 7.8125 278.867C7.22656 274.18 6.01562 269.57 5.07812 264.922C5.15625 257.005 5.19531 249.089 5.19531 241.172ZM28.125 235.352H225.117C223.828 172.617 184.766 128.047 131.367 127.656C72.7734 127.188 30.6641 170.703 28.125 235.352Z" fill="currentColor"/></symbol>
<symbol id='figma' fill="none"  viewBox="0 0 500 500"><path fill-rule="evenodd" clip-rule="evenodd" d="M180.563 196.188C173.496 196.188 166.498 197.579 159.97 200.284C153.441 202.988 147.508 206.952 142.512 211.949C137.515 216.946 133.551 222.878 130.846 229.407C128.142 235.936 126.75 242.933 126.75 250C126.75 257.067 128.142 264.064 130.846 270.593C133.551 277.122 137.515 283.054 142.512 288.051C147.508 293.048 153.441 297.012 159.97 299.716C166.498 302.421 173.496 303.813 180.563 303.813H234.375V196.188H180.563ZM234.375 164.938H180.563C166.288 164.938 152.598 159.267 142.504 149.173C132.41 139.079 126.74 125.389 126.74 111.115C126.74 96.8399 132.41 83.1498 142.504 73.056C152.598 62.9623 166.288 57.2917 180.563 57.2917H234.375V164.938ZM265.625 57.2917V164.938H319.438C333.529 164.66 346.95 158.868 356.817 148.804C366.685 138.741 372.212 125.209 372.212 111.115C372.212 97.0205 366.685 83.4885 356.817 73.4249C346.95 63.3614 333.529 57.5689 319.438 57.2917H265.625ZM319.438 196.167C305.313 196.165 291.753 201.717 281.685 211.625C271.618 221.533 265.849 235.002 265.625 249.125V250.854C265.798 261.458 269.1 271.775 275.117 280.509C281.133 289.242 289.597 296.003 299.444 299.942C309.29 303.881 320.082 304.823 330.462 302.649C340.842 300.475 350.349 295.282 357.787 287.722C365.226 280.163 370.265 270.574 372.271 260.16C374.278 249.746 373.162 238.971 369.065 229.189C364.967 219.407 358.071 211.054 349.241 205.178C340.412 199.303 330.043 196.168 319.438 196.167ZM180.563 335.063C169.915 335.058 159.504 338.212 150.649 344.125C141.793 350.038 134.89 358.444 130.812 368.28C126.735 378.117 125.666 388.941 127.74 399.385C129.815 409.829 134.941 419.424 142.469 426.954C149.996 434.485 159.589 439.614 170.032 441.693C180.475 443.772 191.3 442.707 201.138 438.633C210.976 434.559 219.385 427.66 225.301 418.806C231.217 409.953 234.375 399.544 234.375 388.896V335.063H180.563Z" fill="currentColor"/></symbol>
<symbol id='git' fill="none"  viewBox="0 0 500 500"><path d="M54.1667 220.625L174.583 100L209.792 135.417C204.792 153.125 212.917 172.5 229.167 181.875V297.292C216.667 304.375 208.333 317.917 208.333 333.333C208.333 344.384 212.723 354.982 220.537 362.796C228.351 370.61 238.949 375 250 375C261.051 375 271.649 370.61 279.463 362.796C287.277 354.982 291.667 344.384 291.667 333.333C291.667 317.917 283.333 304.375 270.833 297.292V196.042L313.958 239.583C312.5 242.708 312.5 246.25 312.5 250C312.5 261.051 316.89 271.649 324.704 279.463C332.518 287.277 343.116 291.667 354.167 291.667C365.217 291.667 375.816 287.277 383.63 279.463C391.444 271.649 395.833 261.051 395.833 250C395.833 238.949 391.444 228.351 383.63 220.537C375.816 212.723 365.217 208.333 354.167 208.333C350.417 208.333 346.875 208.333 343.75 209.792L290.208 156.25C292.795 146.601 291.792 136.341 287.386 127.375C282.98 118.409 275.47 111.347 266.25 107.5C257.292 104.167 247.917 103.333 239.583 105.625L204.167 70.4167L220.625 54.1667C236.875 37.7083 263.125 37.7083 279.375 54.1667L445.833 220.625C462.292 236.875 462.292 263.125 445.833 279.375L279.375 445.833C263.125 462.292 236.875 462.292 220.625 445.833L54.1667 279.375C37.7084 263.125 37.7084 236.875 54.1667 220.625Z" fill="currentColor"/></symbol>
<symbol id='github' fill="none"  viewBox="0 0 500 500"><path d="M250 41.6667C222.641 41.6667 195.551 47.0554 170.274 57.5251C144.998 67.9948 122.032 83.3405 102.686 102.686C63.6161 141.756 41.6667 194.747 41.6667 250C41.6667 342.083 101.458 420.208 184.167 447.917C194.583 449.583 197.917 443.125 197.917 437.5V402.292C140.208 414.792 127.917 374.375 127.917 374.375C118.333 350.208 104.792 343.75 104.792 343.75C85.8334 330.833 106.25 331.25 106.25 331.25C127.083 332.708 138.125 352.708 138.125 352.708C156.25 384.375 186.875 375 198.75 370C200.625 356.458 206.042 347.292 211.875 342.083C165.625 336.875 117.083 318.958 117.083 239.583C117.083 216.458 125 197.917 138.542 183.125C136.458 177.917 129.167 156.25 140.625 128.125C140.625 128.125 158.125 122.5 197.917 149.375C214.375 144.792 232.292 142.5 250 142.5C267.708 142.5 285.625 144.792 302.083 149.375C341.875 122.5 359.375 128.125 359.375 128.125C370.833 156.25 363.542 177.917 361.458 183.125C375 197.917 382.917 216.458 382.917 239.583C382.917 319.167 334.167 336.667 287.708 341.875C295.208 348.333 302.083 361.042 302.083 380.417V437.5C302.083 443.125 305.417 449.792 316.042 447.917C398.75 420 458.333 342.083 458.333 250C458.333 222.641 452.945 195.55 442.475 170.274C432.005 144.998 416.66 122.032 397.314 102.686C377.968 83.3405 355.002 67.9948 329.726 57.5251C304.45 47.0554 277.359 41.6667 250 41.6667Z" fill="currentColor"/></symbol>
<symbol id='html' fill="none"  viewBox="0 0 500 500"><path d="M62.5 41.6667L95.375 413L250 458.333L405.562 413.021L437.5 41.6667H62.5ZM355.188 167.667H189.062L192.646 209.667H353L339.958 346.438L251.5 375.208L162.313 344.896L156.312 283.813H198.479L201.813 313.208L251.813 330.188L300.687 314.292L306.875 251.688H154.5L142.792 125.646H359.708L355.188 167.667Z" fill="currentColor"/></symbol>
<symbol id='js' fill="none"  viewBox="0 0 500 500"><path d="M31.25 31.25V468.75H468.75V31.25H31.25ZM269.344 372.453C269.344 415.031 244.344 434.469 207.922 434.469C175.016 434.469 155.969 417.484 146.203 396.875L179.703 376.656C186.156 388.078 192.016 397.75 206.172 397.75C219.641 397.75 228.234 392.469 228.234 371.875V232.125H269.344V372.453ZM366.594 434.469C328.406 434.469 303.703 416.313 291.687 392.469L325.188 373.141C333.984 387.5 345.5 398.141 365.719 398.141C382.703 398.141 393.656 389.641 393.656 377.828C393.656 363.766 382.516 358.781 363.672 350.484L353.422 346.094C323.734 333.5 304.109 317.578 304.109 284.078C304.109 253.219 327.641 229.781 364.266 229.781C390.437 229.781 409.188 238.859 422.672 262.688L390.641 283.203C383.609 270.609 375.984 265.625 364.172 265.625C352.172 265.625 344.547 273.25 344.547 283.203C344.547 295.516 352.172 300.484 369.844 308.203L380.094 312.594C415.063 327.531 434.687 342.875 434.687 377.234C434.687 414.156 405.578 434.453 366.609 434.453L366.594 434.469Z" fill="currentColor"/></symbol>
<symbol id='link' viewBox="0 0 247 247" fill="none" ><path d="M123.5 42.125H42.125C34.931 42.125 28.0317 44.9828 22.9447 50.0697C17.8578 55.1567 15 62.056 15 69.25V204.875C15 212.069 17.8578 218.968 22.9447 224.055C28.0317 229.142 34.931 232 42.125 232H177.75C184.944 232 191.843 229.142 196.93 224.055C202.017 218.968 204.875 212.069 204.875 204.875V123.5M109.938 137.062L232 15M232 15H164.188M232 15V82.8125" stroke="currentColor" stroke-width="30" stroke-linecap="round" stroke-linejoin="round"/></symbol>
<symbol id='location' fill="none"  viewBox="0 0 500 500"><path d="M250 41.6665C299.728 41.6665 347.419 61.4209 382.583 96.584C417.746 131.747 437.5 179.438 437.5 229.167C437.5 293.208 402.583 345.625 365.792 383.229C347.41 401.814 327.353 418.663 305.875 433.562L297 439.604L292.833 442.375L284.979 447.375L277.979 451.646L269.313 456.687C263.43 460.045 256.773 461.811 250 461.811C243.227 461.811 236.57 460.045 230.688 456.687L222.021 451.646L211.188 444.979L207.187 442.375L198.646 436.687C175.476 421.011 153.894 403.106 134.208 383.229C97.4167 345.604 62.5 293.208 62.5 229.167C62.5 179.438 82.2544 131.747 117.417 96.584C152.581 61.4209 200.272 41.6665 250 41.6665ZM250 166.667C241.792 166.667 233.665 168.283 226.082 171.424C218.499 174.565 211.609 179.169 205.806 184.972C200.002 190.776 195.398 197.666 192.258 205.249C189.117 212.832 187.5 220.959 187.5 229.167C187.5 237.374 189.117 245.501 192.258 253.084C195.398 260.667 200.002 267.557 205.806 273.361C211.609 279.164 218.499 283.768 226.082 286.909C233.665 290.05 241.792 291.667 250 291.667C266.576 291.667 282.473 285.082 294.194 273.361C305.915 261.64 312.5 245.743 312.5 229.167C312.5 212.59 305.915 196.693 294.194 184.972C282.473 173.251 266.576 166.667 250 166.667Z" fill="currentColor"/></symbol>
<symbol id='nestjs' fill="none"  viewBox="0 0 500 500"><path d="M295.051 72.1894C285.964 57.8867 288.87 48.4551 293.885 38.7178C298.374 30.001 300.208 14.8525 284.346 2.93163C298.95 -2.44434 321.996 7.06054 322.392 24.4697C313.918 36.1299 290.769 40.7637 295.051 72.1894ZM399.905 393.59C392.815 416.572 396.048 428.801 365.212 476.52C419.733 439.713 445.456 392.193 453.945 338.261C459.275 360.75 459.779 381.149 457.685 400.425C502.865 340.945 533.821 221.003 429.698 100.435C425.51 153.729 373.968 195.691 314.525 179.237C416.445 168.002 422.978 38.4023 335.42 8.47655C337.13 44.5312 287.937 32.7246 302.404 80.959C252.299 52.6103 142.825 46.7842 99.3046 89.793C76.869 111.965 61.5546 130.302 33.5145 131.514C10.3632 132.514 -20.2091 170.082 19.5682 189.295C23.3671 205.306 36.7186 214.422 44.4608 215.993C42.5341 244.504 48.5995 229.968 57.4862 217.54C54.4999 253.58 59.4218 240.597 73.3495 222.055C191.191 198.223 256.269 294.324 257.006 353.35C256.488 342.641 239.368 330.186 230.308 333.616C224.187 346.585 217.517 357.592 209.286 363.022C210.146 354.424 209.559 345.825 207.997 337.228C205.282 347.625 200.172 358.422 192.004 369.728C175.756 370.636 153.016 358.551 159.631 338.518C168.962 319.035 150.66 314.984 135.916 320.562C124.837 324.753 117.349 336.36 116.326 339.97C112.63 352.988 113.846 382.054 139.125 401.327C132.498 402.548 125.694 403.636 121.068 406.356C164.069 432.363 207.961 423.576 232.402 413.763C272.42 397.695 300.02 353.222 304.339 318.914C315.446 367.17 295.547 420.801 250.942 449.564C263.686 450.913 288.631 442.279 314.139 433.185C294.855 457.452 271.806 480.464 234.047 498.573C308.42 492.343 362.819 455.001 399.906 393.59" fill="currentColor"/></symbol>
<symbol id='nginx' fill="none"  viewBox="0 0 500 500"><path d="M250 0L31.25 125V375L250 500L468.75 375V125L250 0ZM375 359.375C375 363.519 373.354 367.493 370.424 370.424C367.493 373.354 363.519 375 359.375 375H320C317.659 374.999 315.349 374.471 313.24 373.457C311.13 372.443 309.275 370.968 307.813 369.141L187.5 218.75V359.375C187.5 363.519 185.854 367.493 182.924 370.424C179.993 373.354 176.019 375 171.875 375H140.625C136.481 375 132.507 373.354 129.576 370.424C126.646 367.493 125 363.519 125 359.375V140.625C125 136.481 126.646 132.507 129.576 129.576C132.507 126.646 136.481 125 140.625 125H180C182.341 125.001 184.651 125.529 186.76 126.543C188.87 127.557 190.725 129.032 192.188 130.859L312.5 281.25V140.625C312.5 136.481 314.146 132.507 317.076 129.576C320.007 126.646 323.981 125 328.125 125H359.375C363.519 125 367.493 126.646 370.424 129.576C373.354 132.507 375 136.481 375 140.625V359.375Z" fill="currentColor"/></symbol>
<symbol id='nodejs' fill="none"  viewBox="0 0 500 500"><path d="M250 38.5416C244.375 38.5416 238.542 40 233.75 42.7083L78.75 132.292C68.75 138.125 62.5 148.958 62.5 160.625V339.375C62.5 351.042 68.75 361.875 78.75 367.708L119.375 391.042C139.167 400.625 145.833 400.833 155 400.833C184.167 400.833 201.042 383.125 201.042 352.292V175.833C201.042 173.333 198.958 171.25 196.458 171.25H177.083C174.375 171.25 172.292 173.333 172.292 175.833V352.292C172.292 366.042 158.125 379.583 135.417 368.125L92.7083 343.75C92.0069 343.255 91.4333 342.6 91.0349 341.839C90.6364 341.078 90.4245 340.234 90.4167 339.375V160.625C90.4167 158.75 91.25 157.083 92.7083 156.25L247.708 66.875C248.958 66.0416 251.042 66.0416 252.292 66.875L407.292 156.25C408.75 157.083 409.583 158.75 409.583 160.625V339.375C409.583 341.042 408.75 342.708 407.292 343.75L252.292 433.125C251.042 433.958 248.958 433.958 247.5 433.125L208.333 409.375C206.667 408.75 205 408.542 203.958 409.167C192.917 415.417 190.833 416.667 180.625 419.792C178.125 420.625 174.167 422.083 182.083 426.458L233.75 457.083C238.75 460 244.167 461.458 250 461.458C255.833 461.458 261.25 460 266.25 457.083L421.25 367.708C431.25 361.875 437.5 351.042 437.5 339.375V160.625C437.5 148.958 431.25 138.125 421.25 132.292L266.25 42.7083C261.458 40 255.833 38.5416 250 38.5416ZM291.667 166.667C247.5 166.667 221.042 185.208 221.042 216.458C221.042 250 247.292 259.792 289.792 263.958C340.417 268.958 344.375 276.458 344.375 286.458C344.375 303.75 330.417 311.042 297.917 311.042C256.667 311.042 247.917 300.833 244.792 280.417C244.572 279.361 243.998 278.413 243.163 277.731C242.329 277.048 241.286 276.673 240.208 276.667H220.208C217.708 276.667 215.833 278.542 215.833 281.25C215.833 307.083 230 338.333 297.917 338.333C346.875 338.333 375 318.958 375 285.208C375 251.667 352.5 242.917 304.792 236.458C256.667 230.208 251.875 226.875 251.875 215.625C251.875 206.25 256.042 193.75 291.667 193.75C322.917 193.75 335.208 200.625 340 222.083C340.417 224.167 342.292 225.625 344.375 225.625H364.583C365.625 225.625 366.875 225.208 367.708 224.167C368.542 223.333 369.167 222.083 368.75 220.833C365.833 183.75 341.25 166.667 291.667 166.667Z" fill="currentColor"/></symbol>
<symbol id='postgresql' fill="none"  viewBox="0 0 500 500"><path d="M350.104 20.8333C331.767 21.0049 313.533 23.5968 295.875 28.5416L294.625 28.9166C283.506 27.0102 272.258 25.9585 260.979 25.7708C237.792 25.375 217.854 30.8333 201.812 39.9375C185.979 34.6041 153.146 25.4166 118.542 27.25C94.4374 28.5208 68.1457 35.625 48.6665 55.5833C29.229 75.5416 18.9582 106.417 21.1249 148.437C21.7082 160.042 25.104 178.937 30.7707 203.437C36.3957 227.917 44.3541 256.562 54.2499 282.708C64.1457 308.854 74.9999 332.375 91.9582 348.333C100.417 356.333 112.062 363.062 125.792 362.5C135.437 362.125 144.167 358.021 151.687 351.958C155.354 356.646 159.271 358.688 162.833 360.583C167.312 362.958 171.687 364.583 176.208 365.667C188.727 368.877 201.767 369.522 214.542 367.562C220.104 366.667 225.958 364.917 231.792 362.417C232 368.708 232.25 374.875 232.521 381.125C233.312 400.917 233.833 419.187 239.958 435.208C240.937 437.833 243.625 451.312 254.271 463.208C264.896 475.125 285.729 482.542 309.437 477.625C326.167 474.146 347.458 467.875 361.583 448.375C375.542 429.083 381.854 401.417 383.104 356.521C383.417 354.104 383.792 352.042 384.187 350.104L387.521 350.396H387.896C405.75 351.187 425.125 348.729 441.312 341.437C455.646 334.979 466.479 328.479 474.375 316.917C476.354 314.062 478.521 310.604 479.104 304.625C479.687 298.687 476.187 289.354 470.333 285.062C458.604 276.437 451.25 279.708 443.354 281.312C435.576 282.979 427.687 283.903 419.687 284.083C442.458 246.917 458.771 207.417 468.083 172.458C473.583 151.833 476.687 132.812 476.937 116.187C477.187 99.5625 475.792 84.8333 465.521 72.0833C433.417 32.2916 388.271 21.2916 353.354 20.9166C352.271 20.8889 351.187 20.8819 350.104 20.8958V20.8333ZM349.187 33.0625C382.208 32.75 424.417 41.75 454.708 79.3125C461.521 87.75 463.542 100.083 463.312 115.292C463.062 130.479 460.167 148.646 454.875 168.562C444.604 207.146 425.187 252.104 397.833 292.479C398.804 293.152 399.854 293.705 400.958 294.125C406.667 296.417 419.667 298.375 445.646 293.208C452.167 291.854 456.958 290.958 461.917 294.625C463.103 295.61 464.046 296.856 464.671 298.265C465.296 299.675 465.587 301.209 465.521 302.75C465.245 305.077 464.361 307.29 462.958 309.167C457.958 316.479 448.042 323.417 435.333 329.125C424.104 334.208 407.979 336.854 393.687 337.021C386.521 337.083 379.917 336.542 374.312 334.854L373.937 334.729C371.771 354.958 366.792 394.938 363.562 413.167C360.958 427.875 356.417 439.562 347.729 448.312C339.062 457.062 326.812 462.333 310.312 465.771C289.875 470.021 274.979 465.438 265.375 457.583C255.792 449.771 251.396 439.375 248.75 433C246.937 428.625 246 422.938 245.083 415.333C244.075 406.229 243.401 397.091 243.062 387.937C242.464 371.889 242.27 355.829 242.479 339.771C233.937 347.333 223.312 352.375 211.917 354.271C198.375 356.5 186.25 354.312 179.021 352.562C175.477 351.689 172.05 350.395 168.812 348.708C165.437 346.979 162.25 345.021 160.125 341.146C158.873 338.934 158.473 336.341 159 333.854C159.682 331.328 161.194 329.105 163.292 327.542C167.208 324.458 172.354 322.75 180.125 321.167C194.292 318.354 199.229 316.417 202.229 314.104C204.792 312.125 207.687 308.125 212.812 302.229L212.75 301.458C203.616 301.19 194.662 298.854 186.562 294.625C183.625 297.625 168.542 313.104 150.146 334.562C142.417 343.542 133.875 348.687 124.854 349.062C115.833 349.437 107.687 345.021 100.771 338.521C86.9165 325.479 75.8749 303.042 66.2499 277.687C56.6665 252.312 48.8332 224.062 43.2915 200C37.7082 175.937 34.4165 156.542 33.9582 147.187C31.8749 107.417 41.4582 80.625 57.9165 63.7291C74.3749 46.8333 96.9166 40.4166 118.917 39.2083C158.375 37 195.854 50.3541 203.437 53.2291C218.042 43.6041 236.854 37.6041 260.375 37.9791C271.523 38.1342 282.62 39.5317 293.458 42.1458L293.854 41.9791C298.632 40.3541 303.479 38.993 308.396 37.8958C321.781 34.8746 335.446 33.2686 349.167 33.1041L349.187 33.0625ZM352.167 45.8541H349.312C338.041 46.006 326.809 47.2338 315.771 49.5208C337.682 59.0641 356.933 73.8101 371.854 92.4792C380.893 103.648 388.391 115.98 394.146 129.146C396.312 134.187 397.771 138.458 398.583 141.75C399 143.417 399.292 144.812 399.375 146.271C399.452 147.194 399.374 148.123 399.146 149.021L399.021 149.271C399.625 166 395.354 177.333 394.833 193.292C394.437 204.875 397.479 218.479 398.229 233.292C398.937 247.25 397.208 262.562 387.875 277.604C388.653 278.521 389.403 279.437 390.125 280.354C414.812 242.646 432.625 200.896 442.104 165.333C447.167 146.167 449.875 128.812 450.104 115.062C450.312 101.312 447.667 91.3333 444.292 87.1875C417.875 54.4166 382.146 46.0833 352.167 45.8541ZM257.896 50.7291C234.625 50.7708 217.917 57.6041 205.271 67.8125C192.208 78.375 183.458 92.8125 177.708 107.625C172.143 122.428 168.74 137.955 167.604 153.729L167.875 153.583C174.896 149.75 184.125 145.937 194 143.729C203.896 141.521 214.542 140.833 224.187 144.458C233.833 148.083 241.812 156.625 244.708 169.583C258.562 231.792 240.396 254.917 233.687 272.354C231.171 278.683 229.001 285.144 227.187 291.708C228.021 291.472 228.861 291.306 229.708 291.208C233.368 291.01 237.019 291.726 240.333 293.292C247.083 296 251.708 301.667 254.208 308.167C254.861 309.889 255.326 311.694 255.604 313.583C255.882 314.375 256.014 315.187 256 316.021C255.251 339.808 255.335 363.614 256.25 387.396C256.708 397.687 257.375 406.729 258.229 413.875C259.062 421 260.271 426.417 261.042 428.25C263.542 434.375 267.229 442.375 273.896 447.813C280.562 453.25 290.083 456.854 307.521 453.229C322.646 450.083 331.979 445.729 338.229 439.417C344.437 433.146 348.167 424.417 350.542 411.021C354.104 390.958 361.271 332.812 362.125 321.854C361.75 313.625 363 307.271 365.708 302.437C368.521 297.479 372.854 294.437 376.583 292.792C378.458 291.958 380.208 291.417 381.646 291.021C380.114 288.902 378.516 286.831 376.854 284.812C371.467 278.51 367.05 271.439 363.75 263.833C362.16 260.704 360.472 257.626 358.687 254.604C356.083 250.021 352.771 244.292 349.312 237.854C342.375 224.958 334.833 209.333 330.917 194.104C327.021 178.917 326.437 163.187 336.437 152.083C345.312 142.229 360.854 138.146 384.208 140.437C383.521 138.437 383.104 136.771 381.937 134.104C376.667 122 369.778 110.667 361.458 100.417C341.667 75.875 309.646 51.5416 260.146 50.75H257.896V50.7291ZM127.146 51.7083C124.646 51.7083 122.146 51.7778 119.646 51.9166C99.7707 53.0208 80.979 58.625 67.5415 72.4583C54.0624 86.2708 45.2082 108.937 47.1249 146.479C47.5207 153.562 50.7082 173.479 56.1666 197.104C61.6249 220.771 69.3749 248.583 78.6665 273.146C87.9582 297.729 99.2499 319.125 109.958 329.25C115.354 334.312 120.042 336.354 124.292 336.187C128.562 335.979 133.687 333.604 139.979 326.292C151.437 312.883 163.318 299.842 175.604 287.187C166.923 279.908 160.241 270.537 156.187 259.958C152.167 249.48 150.946 238.135 152.646 227.042C154.667 212.917 154.937 199.708 154.708 189.292C154.458 179.125 153.708 172.375 153.708 168.146V167.562C153.687 145.544 157.632 123.703 165.354 103.083C170.854 88.875 179.062 74.4375 191.375 62.75C179.292 58.8958 157.833 53.0208 134.604 51.9166C132.106 51.7829 129.605 51.7134 127.104 51.7083H127.146ZM371.187 152.583C357.833 152.75 350.333 156.104 346.396 160.479C340.812 166.687 340.292 177.562 343.75 190.979C347.208 204.396 354.312 219.417 361.021 231.875C364.354 238.125 367.604 243.75 370.229 248.292C372.875 252.875 374.812 256.125 375.979 258.917C377.09 261.431 378.257 263.729 379.479 265.812C384.646 255.208 385.583 244.812 385.042 233.958C384.354 220.542 381.146 206.812 381.625 192.917C382.146 176.667 385.458 166.062 385.75 153.5C380.918 152.911 376.055 152.605 371.187 152.583ZM209.104 154.771C205.023 154.802 200.957 155.277 196.979 156.187C189.07 158.052 181.436 160.938 174.271 164.771C171.868 166.021 169.576 167.472 167.396 169.125L166.979 169.5C167.104 172.292 167.667 179.062 167.917 189C168.125 199.896 167.875 213.792 165.708 228.792C161 261.458 185.417 288.5 214.125 288.542C215.792 281.833 218.562 275.042 221.312 267.875C229.312 246.979 245.042 231.75 231.792 172.271C229.625 162.542 225.333 158.604 219.417 156.375C216.103 155.225 212.61 154.681 209.104 154.771ZM364.937 158.667H365.937C367.243 158.708 368.424 158.847 369.479 159.083C370.437 159.276 371.354 159.636 372.187 160.146C372.567 160.369 372.895 160.67 373.15 161.029C373.405 161.388 373.581 161.797 373.667 162.229V162.396C373.721 163.311 373.472 164.219 372.958 164.979C372.377 166.03 371.647 166.991 370.792 167.833C368.773 169.976 366.11 171.402 363.208 171.896C360.363 172.233 357.492 171.53 355.125 169.917C354.172 169.287 353.31 168.53 352.562 167.667C351.93 166.992 351.498 166.156 351.312 165.25C351.267 164.804 351.318 164.354 351.462 163.93C351.606 163.506 351.839 163.118 352.146 162.792C352.812 162.093 353.594 161.514 354.458 161.083C357.758 159.568 361.329 158.732 364.958 158.625L364.937 158.667ZM211.021 161.875C212.062 161.875 213.153 161.958 214.292 162.125C217.292 162.542 219.979 163.312 222.021 164.458C223.021 164.972 223.896 165.646 224.646 166.479C225.035 166.937 225.326 167.444 225.521 168C225.715 168.556 225.778 169.132 225.708 169.729C225.519 170.834 225.004 171.857 224.229 172.667C223.423 173.637 222.475 174.48 221.417 175.167C218.829 176.929 215.69 177.691 212.583 177.312C209.431 176.804 206.532 175.274 204.333 172.958C203.419 172.026 202.634 170.975 202 169.833C201.351 168.834 201.064 167.643 201.187 166.458C201.479 164.375 203.25 163.333 204.937 162.708C206.888 162.089 208.936 161.835 210.979 161.958L211.021 161.875ZM389.354 302.125H389.292C386.396 303.167 384.021 303.583 382 304.417C379.987 305.163 378.318 306.624 377.312 308.521C376.062 310.708 375.021 314.604 375.333 321.229C376.231 321.821 377.215 322.271 378.25 322.562C381.604 323.562 387.25 324.229 393.562 324.125C406.104 323.979 421.562 321.146 429.771 317.437C436.5 314.396 442.75 310.437 448.333 305.687C420.896 311.187 405.417 309.729 395.896 305.917C393.547 304.958 391.345 303.696 389.354 302.125ZM231.271 303.896H230.854C229.812 303.979 228.292 304.312 225.375 307.479C218.5 314.937 216.125 319.604 210.458 323.979C204.833 328.354 197.479 330.667 182.812 333.583C178.167 334.5 175.521 335.521 173.729 336.333C174.312 336.792 174.25 336.917 175.104 337.354C177.25 338.5 180.021 339.5 182.229 340.062C188.542 341.583 198.896 343.375 209.708 341.583C220.521 339.792 231.75 334.771 241.333 321.729C243 319.479 243.167 316.146 241.812 312.562C240.417 309.021 237.417 305.937 235.292 305.062C234.024 304.465 232.665 304.084 231.271 303.937V303.896Z" fill="currentColor"/></symbol>
<symbol id='react' fill="none"  viewBox="0 0 500 500"><path d="M250 210.625C271.458 210.625 288.958 228.125 288.958 250C288.958 270.833 271.458 288.542 250 288.542C228.542 288.542 211.042 270.833 211.042 250C211.042 228.125 228.542 210.625 250 210.625ZM153.542 416.667C166.667 424.583 195.417 412.5 228.542 381.25C217.708 368.958 207.083 355.625 197.083 341.667C180.296 340.048 163.606 337.545 147.083 334.167C136.458 378.75 140.417 409.375 153.542 416.667ZM168.333 297.083L162.292 286.458C160 292.5 157.708 298.542 156.25 304.375C161.875 305.625 168.125 306.667 174.583 307.708L168.333 297.083ZM304.583 281.25L321.458 250L304.583 218.75C298.333 207.708 291.667 197.917 285.625 188.125C274.375 187.5 262.5 187.5 250 187.5C237.5 187.5 225.625 187.5 214.375 188.125C208.333 197.917 201.667 207.708 195.417 218.75L178.542 250L195.417 281.25C201.667 292.292 208.333 302.083 214.375 311.875C225.625 312.5 237.5 312.5 250 312.5C262.5 312.5 274.375 312.5 285.625 311.875C291.667 302.083 298.333 292.292 304.583 281.25ZM250 141.25C246.042 145.833 241.875 150.625 237.708 156.25H262.292C258.125 150.625 253.958 145.833 250 141.25ZM250 358.75C253.958 354.167 258.125 349.375 262.292 343.75H237.708C241.875 349.375 246.042 354.167 250 358.75ZM346.25 83.3333C333.333 75.4167 304.583 87.5 271.458 118.75C282.292 131.042 292.917 144.375 302.917 158.333C320 160 336.875 162.5 352.917 165.833C363.542 121.25 359.583 90.625 346.25 83.3333ZM331.667 202.917L337.708 213.542C340 207.5 342.292 201.458 343.75 195.625C338.125 194.375 331.875 193.333 325.417 192.292L331.667 202.917ZM361.875 56.0417C392.5 73.5417 395.833 119.583 382.917 173.333C435.833 188.958 473.958 214.792 473.958 250C473.958 285.208 435.833 311.042 382.917 326.667C395.833 380.417 392.5 426.458 361.875 443.958C331.458 461.458 290 441.458 250 403.333C210 441.458 168.542 461.458 137.917 443.958C107.5 426.458 104.167 380.417 117.083 326.667C64.1667 311.042 26.0417 285.208 26.0417 250C26.0417 214.792 64.1667 188.958 117.083 173.333C104.167 119.583 107.5 73.5417 137.917 56.0417C168.542 38.5417 210 58.5417 250 96.6667C290 58.5417 331.458 38.5417 361.875 56.0417ZM355.833 250C362.917 265.625 369.167 281.25 374.375 297.083C418.125 283.958 442.708 265.208 442.708 250C442.708 234.792 418.125 216.042 374.375 202.917C369.167 218.75 362.917 234.375 355.833 250ZM144.167 250C137.083 234.375 130.833 218.75 125.625 202.917C81.8751 216.042 57.2917 234.792 57.2917 250C57.2917 265.208 81.8751 283.958 125.625 297.083C130.833 281.25 137.083 265.625 144.167 250ZM331.667 297.083L325.417 307.708C331.875 306.667 338.125 305.625 343.75 304.375C342.292 298.542 340 292.5 337.708 286.458L331.667 297.083ZM271.458 381.25C304.583 412.5 333.333 424.583 346.25 416.667C359.583 409.375 363.542 378.75 352.917 334.167C336.875 337.5 320 340 302.917 341.667C292.917 355.625 282.292 368.958 271.458 381.25ZM168.333 202.917L174.583 192.292C168.125 193.333 161.875 194.375 156.25 195.625C157.708 201.458 160 207.5 162.292 213.542L168.333 202.917ZM228.542 118.75C195.417 87.5 166.667 75.4167 153.542 83.3333C140.417 90.625 136.458 121.25 147.083 165.833C163.606 162.455 180.296 159.952 197.083 158.333C207.083 144.375 217.708 131.042 228.542 118.75Z" fill="currentColor"/></symbol>
<symbol id='scss' fill="none"  viewBox="0 0 500 500"><path d="M252.672 292.188C245.156 295.641 236.922 300.141 220.438 309.188C214.188 312.703 207.656 316.219 201.578 319.531C201.156 319.109 200.719 318.578 200.297 318.141C167.688 283.297 107.375 258.688 109.938 211.891C110.891 194.844 116.75 150.094 225.766 95.7501C315.484 51.5313 386.875 63.7813 399.203 90.9532C416.922 129.688 360.938 201.766 268.281 212.219C258.026 214.298 247.436 214.046 237.291 211.482C227.147 208.918 217.708 204.108 209.672 197.406C204.766 192.078 204.031 191.766 202.219 192.828C199.234 194.391 201.156 199.219 202.219 201.984C205.753 208.384 210.535 214.009 216.281 218.529C222.027 223.048 228.62 226.37 235.672 228.297C272.135 236.178 310.151 232.413 344.359 217.531C400.516 195.797 444.359 135.375 431.516 84.7188C418.625 33.3595 333.375 16.422 252.719 45.0782C202.207 62.1 155.54 88.8955 115.375 123.938C70.9375 165.5 63.9063 201.625 66.7813 216.75C77.1251 270.453 151.156 305.406 180.844 331.297C179.302 332.13 177.953 332.875 176.797 333.531C161.984 340.891 105.516 370.406 91.4376 401.625C75.4532 437 94.0001 462.359 106.25 465.766C124.711 470.193 144.093 468.741 161.689 461.614C179.285 454.488 194.214 442.042 204.391 426.016C213.036 412.729 218.344 397.552 219.865 381.774C221.385 365.996 219.073 350.084 213.125 335.391C216.633 332.59 220.376 330.096 224.313 327.938C231.875 323.469 239.078 319.063 245.469 315.656C267.354 305.42 291.23 300.143 315.391 300.203C366.109 306.172 376.125 337.813 374.203 351.141C373.301 355.868 371.398 360.348 368.623 364.28C365.847 368.212 362.262 371.505 358.109 373.938C354.594 376.172 353.422 376.922 353.734 378.516C354.156 380.859 355.859 380.75 358.844 380.328C366.464 377.92 373.177 373.263 378.102 366.969C383.027 360.675 385.933 353.038 386.438 345.063C388 313.813 358.203 279.531 305.453 279.844C289.66 279.89 274.026 283.005 259.422 289.016C257.078 289.984 254.802 291.026 252.594 292.141L252.672 292.188ZM177.281 414.672C160.438 433 137 439.922 126.875 434.063C115.938 427.813 120.266 400.703 140.938 381.313C153.17 370.269 166.405 360.388 180.469 351.797C182.922 350.234 186.547 348.172 190.906 345.547L192.078 344.906L194.641 343.344C198.324 355.705 198.658 368.823 195.608 381.356C192.558 393.888 186.233 405.386 177.281 414.672Z" fill="currentColor"/></symbol>
<symbol id='ts' fill="none"  viewBox="0 0 500 500"><path d="M289.063 203.438C289.063 216.344 303.031 223.688 336.375 236.188C369.25 248.5 414.063 265.281 414.063 312.813V312.875C413.99 323.853 411.605 334.693 407.063 344.688C402.608 354.72 396.09 363.7 387.933 371.045C379.775 378.389 370.162 383.932 359.719 387.313C349.406 390.75 338.25 392 327.375 390.906C325.154 391.151 322.922 391.276 320.688 391.281C301.347 391.215 282.718 383.978 268.406 370.969C260.235 363.645 253.684 354.693 249.174 344.689C244.664 334.685 242.295 323.848 242.219 312.875C242.219 306.563 244.656 300.688 249.094 296.25C253.566 291.999 259.501 289.628 265.672 289.628C271.843 289.628 277.778 291.999 282.25 296.25C286.688 300.656 289.125 306.563 289.125 312.813C289.125 342.563 321.656 344.063 328.188 344.063C334.719 344.063 367.25 342.563 367.25 312.813C367.25 299.906 353.281 292.563 319.938 280.063C287.063 267.75 242.25 251 242.25 203.438C242.354 192.25 244.688 181.625 249.25 171.563C253.75 161.563 260.219 152.656 268.438 145.313C276.571 137.948 286.165 132.379 296.594 128.969C307.02 125.591 318.022 124.358 328.938 125.344C339.359 124.387 349.866 125.622 359.781 128.969C375.449 134.181 389.101 144.15 398.836 157.487C408.571 170.824 413.905 186.864 414.094 203.375C414.094 209.688 411.656 215.563 407.219 220C402.746 224.251 396.811 226.622 390.641 226.622C384.47 226.622 378.535 224.251 374.063 220C371.872 217.836 370.135 215.256 368.954 212.412C367.774 209.568 367.173 206.517 367.188 203.438C367.188 173.688 334.656 172.188 328.125 172.188C321.594 172.188 289.063 173.688 289.063 203.438ZM70.3126 125.313H210.938C215.577 125.302 220.115 126.67 223.975 129.243C227.835 131.816 230.843 135.478 232.618 139.764C234.393 144.051 234.854 148.768 233.943 153.316C233.032 157.865 230.789 162.041 227.5 165.313C225.336 167.504 222.756 169.24 219.912 170.421C217.068 171.601 214.017 172.202 210.938 172.188H164.063V367.5C164.073 372.139 162.706 376.677 160.132 380.537C157.559 384.397 153.897 387.406 149.611 389.181C145.324 390.956 140.607 391.417 136.059 390.505C131.51 389.594 127.334 387.351 124.063 384.063C121.872 381.899 120.135 379.319 118.954 376.475C117.774 373.631 117.173 370.579 117.188 367.5V172.188H70.3126C65.6734 172.198 61.1356 170.83 57.2754 168.257C53.4152 165.684 50.4067 162.022 48.6319 157.736C46.8571 153.449 46.3961 148.732 47.3073 144.184C48.2186 139.635 50.4611 135.459 53.7501 132.188C55.914 129.997 58.4936 128.26 61.3378 127.079C64.1819 125.899 67.2332 125.298 70.3126 125.313Z" fill="currentColor"/></symbol>
</svg>
